<svg width="24" height="24" viewBox="0 0 24 24" fill="none" xmlns="http://www.w3.org/2000/svg">
<path d="M17.75 21.16L15 18.16L16.16 17L17.75 18.59L21.34 15L22.5 16.41L17.75 21.16ZM10 21H12.8C13.04 21.41 13.33 21.79 13.65 22.13C13.29 22.66 12.69 23 12 23C11.4696 23 10.9609 22.7893 10.5858 22.4142C10.2107 22.0391 10 21.5304 10 21ZM3 20V19L5 17V11C4.99961 9.49223 5.48607 8.02464 6.38698 6.81562C7.28788 5.60661 8.55509 4.72079 10 4.29V4C10 3.46957 10.2107 2.96086 10.5858 2.58579C10.9609 2.21071 11.4696 2 12 2C12.5304 2 13.0391 2.21071 13.4142 2.58579C13.7893 2.96086 14 3.46957 14 4V4.29C15.4449 4.72079 16.7121 5.60661 17.613 6.81562C18.5139 8.02464 19.0004 9.49223 19 11V12.08L18 12L17 12.08V11C17 8.24 14.76 6 12 6C9.24 6 7 8.24 7 11V18H12C12 18.7 12.12 19.37 12.34 20H3Z" fill="black"/>
</svg>
