<svg viewBox="0 0 24 24" version="1.1" xmlns="http://www.w3.org/2000/svg" xmlns:xlink="http://www.w3.org/1999/xlink">
    <g id="Fichas" stroke="none" stroke-width="1" fill="none" fill-rule="evenodd">
        <g id="Ficha-movil" transform="translate(-20.000000, -5319.000000)" fill="#4A4A4A">
            <path d="M36.5,5330.25 L27.5,5330.25 C27.296873,5330.25 27.121094,5330.32422 26.972657,5330.47266 C26.824217,5330.62109 26.75,5330.79687 26.75,5331 C26.75,5331.20313 26.824217,5331.37891 26.972657,5331.52734 C27.121094,5331.67578 27.296873,5331.75 27.5,5331.75 L36.5,5331.75 C36.703127,5331.75 36.878906,5331.67578 37.027343,5331.52734 C37.175783,5331.37891 37.25,5331.20313 37.25,5331 C37.25,5330.79687 37.175783,5330.62109 37.027343,5330.47266 C36.878906,5330.32422 36.703127,5330.25 36.5,5330.25 Z M41,5319 L23,5319 C22.171871,5319 21.4648466,5319.29296 20.8789064,5319.87891 C20.2929658,5320.46485 20,5321.17187 20,5322 L20,5340 C20,5340.82813 20.2929658,5341.53515 20.8789064,5342.12109 C21.4648466,5342.70703 22.171871,5343 23,5343 L41,5343 C41.828129,5343 42.535154,5342.70703 43.121093,5342.12109 C43.707035,5341.53515 44,5340.82813 44,5340 L44,5322 C44,5321.17187 43.707035,5320.46485 43.121093,5319.87891 C42.535154,5319.29296 41.828129,5319 41,5319 Z M42.5,5340 C42.5,5340.40625 42.351563,5340.75781 42.054686,5341.05469 C41.757812,5341.35156 41.406251,5341.5 41,5341.5 L23,5341.5 C22.5937481,5341.5 22.2421889,5341.35156 21.9453125,5341.05469 C21.6484361,5340.75781 21.5,5340.40625 21.5,5340 L21.5,5322 C21.5,5321.59375 21.6484361,5321.24219 21.9453125,5320.94531 C22.2421889,5320.64844 22.5937481,5320.5 23,5320.5 L41,5320.5 C41.406251,5320.5 41.757812,5320.64844 42.054686,5320.94531 C42.351563,5321.24219 42.5,5321.59375 42.5,5322 L42.5,5340 Z" id="Page-1"></path>
        </g>
    </g>
</svg>
