<svg viewBox="0 0 6 9" version="1.1" xmlns="http://www.w3.org/2000/svg" xmlns:xlink="http://www.w3.org/1999/xlink">
    <g id="Fichas" stroke="none" stroke-width="1" fill="none" fill-rule="evenodd">
        <g id="Ficha-Alt-6" transform="translate(-472.000000, -8440.000000)" fill="#4A4A4A">
            <path d="M477.148443,8444.49999 C477.148443,8444.43749 477.117193,8444.36718 477.070318,8444.32031 L473.429689,8440.67968 C473.382814,8440.6328 473.312501,8440.60155 473.250001,8440.60155 C473.187501,8440.60155 473.117188,8440.6328 473.070313,8440.67968 L472.679688,8441.0703 C472.632813,8441.11718 472.601563,8441.18749 472.601563,8441.24999 C472.601563,8441.31249 472.632813,8441.3828 472.679688,8441.42968 L475.750004,8444.49999 L472.679688,8447.57031 C472.632813,8447.61719 472.601563,8447.6875 472.601563,8447.75 C472.601563,8447.82031 472.632813,8447.88281 472.679688,8447.92969 L473.070313,8448.32031 C473.117188,8448.36719 473.187501,8448.39844 473.250001,8448.39844 C473.312501,8448.39844 473.382814,8448.36719 473.429689,8448.32031 L477.070318,8444.67968 C477.117193,8444.63281 477.148443,8444.56249 477.148443,8444.49999 Z" id="caret"></path>
        </g>
    </g>
</svg>
