<svg viewBox="0 0 24 24" version="1.1" xmlns="http://www.w3.org/2000/svg" xmlns:xlink="http://www.w3.org/1999/xlink">
    <g id="Fichas" stroke="none" stroke-width="1" fill="none" fill-rule="evenodd">
        <g id="Ficha-movil" transform="translate(-20.000000, -5229.000000)" fill="#4A4A4A">
            <path d="M41,5229 L23,5229 C22.171871,5229 21.4648466,5229.29296 20.8789064,5229.87891 C20.2929658,5230.46485 20,5231.17187 20,5232 L20,5250 C20,5250.82813 20.2929658,5251.53515 20.8789064,5252.12109 C21.4648466,5252.70703 22.171871,5253 23,5253 L41,5253 C41.828129,5253 42.535154,5252.70703 43.121093,5252.12109 C43.707035,5251.53515 44,5250.82813 44,5250 L44,5232 C44,5231.17187 43.707035,5230.46485 43.121093,5229.87891 C42.535154,5229.29296 41.828129,5229 41,5229 Z M42.5,5250 C42.5,5250.40625 42.351563,5250.75781 42.054686,5251.05469 C41.757812,5251.35156 41.406251,5251.5 41,5251.5 L23,5251.5 C22.5937481,5251.5 22.2421889,5251.35156 21.9453125,5251.05469 C21.6484361,5250.75781 21.5,5250.40625 21.5,5250 L21.5,5232 C21.5,5231.59375 21.6484361,5231.24219 21.9453125,5230.94531 C22.2421889,5230.64844 22.5937481,5230.5 23,5230.5 L41,5230.5 C41.406251,5230.5 41.757812,5230.64844 42.054686,5230.94531 C42.351563,5231.24219 42.5,5231.59375 42.5,5232 L42.5,5250 Z M36.523436,5235.79688 C36.335936,5235.70312 36.144533,5235.67969 35.949218,5235.72656 C35.753906,5235.77344 35.601563,5235.89062 35.492186,5236.07812 L30.6875,5244.375 L28.015625,5241.91406 C27.875,5241.75781 27.699221,5241.67578 27.488282,5241.66797 C27.277343,5241.66016 27.101564,5241.72656 26.960936,5241.86719 C26.804687,5242.00781 26.722655,5242.18359 26.714843,5242.39453 C26.707031,5242.60547 26.773436,5242.78125 26.914064,5242.92188 L30.359375,5246.08594 C30.5,5246.24219 30.671873,5246.32422 30.875,5246.33203 C31.078127,5246.33984 31.257812,5246.27344 31.414064,5246.13281 C31.429688,5246.11719 31.718747,5245.6211 32.28125,5244.64453 C32.843753,5243.66796 33.460934,5242.60157 34.132814,5241.44531 C34.804691,5240.28906 35.417966,5239.23047 35.972657,5238.26953 C36.527348,5237.30859 36.804686,5236.82812 36.804686,5236.82812 C36.898439,5236.64062 36.917969,5236.44922 36.863282,5236.25391 C36.808592,5236.05859 36.695312,5235.90625 36.523436,5235.79688 Z" id="Page-1"></path>
        </g>
    </g>
</svg>
